<mxfile host="app.diagrams.net" agent="Mozilla/5.0 (Windows NT 10.0; Win64; x64) AppleWebKit/537.36 (KHTML, like Gecko) Chrome/138.0.0.0 Safari/537.36" version="28.0.6">
  <diagram name="Page-1" id="E_C2FgLV05fxSceBKMsZ">
    <mxGraphModel dx="1042" dy="623" grid="1" gridSize="10" guides="1" tooltips="1" connect="1" arrows="1" fold="1" page="1" pageScale="1" pageWidth="850" pageHeight="1100" math="0" shadow="0">
      <root>
        <mxCell id="0" />
        <mxCell id="1" parent="0" />
        <mxCell id="4bU7H1YwfBVtHh8ljjKs-2" value="" style="rounded=0;whiteSpace=wrap;html=1;strokeColor=default;" parent="1" vertex="1">
          <mxGeometry x="60" y="330" width="760" height="620" as="geometry" />
        </mxCell>
        <mxCell id="4bU7H1YwfBVtHh8ljjKs-14" value="-------------------------------------------" style="text;html=1;align=center;verticalAlign=middle;whiteSpace=wrap;rounded=0;fontSize=50;" parent="1" vertex="1">
          <mxGeometry x="80" y="460" width="720" height="30" as="geometry" />
        </mxCell>
        <mxCell id="4bU7H1YwfBVtHh8ljjKs-17" value="&lt;span style=&quot;font-size: 30px;&quot;&gt;Enter Name&lt;/span&gt;" style="rounded=1;whiteSpace=wrap;html=1;" parent="1" vertex="1">
          <mxGeometry x="270" y="510" width="340" height="40" as="geometry" />
        </mxCell>
        <mxCell id="4bU7H1YwfBVtHh8ljjKs-19" value="&lt;span style=&quot;font-size: 30px;&quot;&gt;Select Your Institute&lt;/span&gt;" style="rounded=1;whiteSpace=wrap;html=1;" parent="1" vertex="1">
          <mxGeometry x="270" y="650" width="340" height="40" as="geometry" />
        </mxCell>
        <mxCell id="4bU7H1YwfBVtHh8ljjKs-21" value="&lt;font style=&quot;color: light-dark(rgb(0, 0, 0), rgb(255, 255, 255)); font-size: 27px;&quot;&gt;&lt;br&gt;&lt;/font&gt;&lt;div&gt;&lt;font style=&quot;font-size: 27px;&quot;&gt;Roll No.&lt;br&gt;&lt;/font&gt;&lt;div&gt;&lt;br&gt;&lt;/div&gt;&lt;/div&gt;" style="rounded=1;whiteSpace=wrap;html=1;" parent="1" vertex="1">
          <mxGeometry x="270" y="580" width="340" height="40" as="geometry" />
        </mxCell>
        <mxCell id="4bU7H1YwfBVtHh8ljjKs-22" value="&lt;font style=&quot;font-size: 41px;&quot;&gt;submit&lt;/font&gt;" style="rounded=1;whiteSpace=wrap;html=1;fontSize=44;fillColor=#0050ef;fontColor=#ffffff;strokeColor=#001DBC;" parent="1" vertex="1">
          <mxGeometry x="270" y="780" width="170" height="50" as="geometry" />
        </mxCell>
        <mxCell id="4bU7H1YwfBVtHh8ljjKs-23" value="-------------------------------------------" style="text;html=1;align=center;verticalAlign=middle;whiteSpace=wrap;rounded=0;fontSize=50;" parent="1" vertex="1">
          <mxGeometry x="80" y="870" width="720" height="30" as="geometry" />
        </mxCell>
        <mxCell id="_6uMBUElYHicD9cn7aDi-2" value="&lt;b style=&quot;font-size: 33px;&quot;&gt;Registrestion Form&lt;/b&gt;" style="shape=parallelogram;perimeter=parallelogramPerimeter;whiteSpace=wrap;html=1;fixedSize=1;rounded=0;strokeColor=default;align=center;verticalAlign=middle;fontFamily=Helvetica;fontSize=12;fontColor=default;fillColor=default;" vertex="1" parent="1">
          <mxGeometry x="180" y="390" width="500" height="40" as="geometry" />
        </mxCell>
        <mxCell id="_6uMBUElYHicD9cn7aDi-4" value="&lt;span style=&quot;font-size: 30px;&quot;&gt;Select Your gender&lt;/span&gt;" style="rounded=1;whiteSpace=wrap;html=1;" vertex="1" parent="1">
          <mxGeometry x="270" y="720" width="340" height="40" as="geometry" />
        </mxCell>
        <mxCell id="_6uMBUElYHicD9cn7aDi-6" value="&lt;font style=&quot;font-size: 40px;&quot;&gt;Reset&lt;/font&gt;" style="rounded=1;whiteSpace=wrap;html=1;fontSize=44;fillColor=#0050ef;fontColor=#ffffff;strokeColor=#001DBC;" vertex="1" parent="1">
          <mxGeometry x="450" y="780" width="170" height="50" as="geometry" />
        </mxCell>
      </root>
    </mxGraphModel>
  </diagram>
</mxfile>
